PathFileType	4	(X/Y/Z)	C:/Users/opensim2020/Desktop/walking_exp_matlab/subject03_walking05_straight_04.trc																																																																																																																																					
DataRate	CameraRate	NumFrames	NumMarkers	Units	OrigDataRate	OrigDataStartFrame	OrigNumFrames																																																																																																																																	
100	100	6	45	mm	100	3075	294																																																																																																																																	
Frame#	Time	LFHD			RFHD			LBHD			RBHD			C7			T10			CLAV			STRN			RBAK			LSHO			LUPA			LELB			LFRM			LWRA			LWRB			LFIN			RSHO			RUPA			RELB			RFRM			RWRA			RWRB			RFIN			LASI			RASI			LPSI			RPSI			LTHI			LKNE			LTIB			LANK			LHEE			LTOE			RTHI			RKNE			RTIB			RANK			RHEE			RTOE			*39			*40			*41			*42			*43			*44		
		X1	Y1	Z1	X2	Y2	Z2	X3	Y3	Z3	X4	Y4	Z4	X5	Y5	Z5	X6	Y6	Z6	X7	Y7	Z7	X8	Y8	Z8	X9	Y9	Z9	X10	Y10	Z10	X11	Y11	Z11	X12	Y12	Z12	X13	Y13	Z13	X14	Y14	Z14	X15	Y15	Z15	X16	Y16	Z16	X17	Y17	Z17	X18	Y18	Z18	X19	Y19	Z19	X20	Y20	Z20	X21	Y21	Z21	X22	Y22	Z22	X23	Y23	Z23	X24	Y24	Z24	X25	Y25	Z25	X26	Y26	Z26	X27	Y27	Z27	X28	Y28	Z28	X29	Y29	Z29	X30	Y30	Z30	X31	Y31	Z31	X32	Y32	Z32	X33	Y33	Z33	X34	Y34	Z34	X35	Y35	Z35	X36	Y36	Z36	X37	Y37	Z37	X38	Y38	Z38	X39	Y39	Z39	X40	Y40	Z40	X41	Y41	Z41	X42	Y42	Z42	X43	Y43	Z43	X44	Y44	Z44	X45	Y45	Z45
																																																																																																																																								
221	2.2	517.23254	1603.64417	-1506.96716	510.16492	1618.41956	-1374.72205	386.76974	1567.59473	-1505.60547	384.76099	1581.82361	-1375.36035	350.25998	1412.18469	-1434.66101	310.83792	1098.05359	-1432.25171	469.64258	1332.63574	-1433.23853	509.30719	1167.12903	-1435.11731	295.98386	1239.92993	-1330.58948	423.8515	1367.62622	-1590.37463	387.46579	1170.21497	-1658.61145	376.1929	1047.26123	-1669.87891	385.50012	917.29614	-1669.53894	388.74377	798.09253	-1638.65759	365.59991	805.90155	-1689.22058	370.2738	721.71893	-1679.50696	430.40976	1361.37708	-1274.60352	473.55457	1147.59741	-1193.58069	520.04645	1045.50464	-1180.54004	581.2868	923.51587	-1184.0863	637.09973	845.0553	-1226.72656	615.40582	829.28949	-1179.73584	661.95514	773.09308	-1193.09631	486.46664	933.82098	-1543.56311	472.30865	934.0318	-1305.29468	320.8353	950.28845	-1503.37732	315.04446	964.81915	-1353.97864	497.65146	635.82068	-1599.6687	570.30725	474.38242	-1559.29797	576.65369	282.53824	-1562.62097	630.91876	77.35421	-1532.24866	605.19281	33.67878	-1489.66101	784.29865	74.25172	-1519.49561	378.20331	643.9317	-1273.87512	357.19684	465.78214	-1312.7749	272.74387	291.74149	-1314.92004	200.84332	87.77097	-1368.84631	153.41675	62.98864	-1420.17847	337.17154	36.08557	-1381.05774	NaN	NaN	NaN	NaN	NaN	NaN	NaN	NaN	NaN	NaN	NaN	NaN	NaN	NaN	NaN	NaN	NaN	NaN
222	2.21	527.41718	1602.72974	-1507.66553	520.27838	1617.47937	-1375.43738	397.00699	1566.47083	-1506.35474	394.91434	1580.70703	-1376.09253	360.74158	1411.21692	-1435.62036	321.0704	1097.03857	-1433.38635	480.15509	1331.66736	-1433.93262	519.67786	1166.04492	-1435.68018	305.98325	1239.14087	-1331.61816	434.71375	1366.64185	-1591.22034	396.759	1169.38855	-1659.28796	384.21841	1046.54639	-1670.57275	392.24622	916.48297	-1670.34338	394.51849	797.32428	-1639.8269	371.11282	805.26434	-1689.91565	374.75589	721.05548	-1680.48889	440.59036	1360.24646	-1275.34363	483.96133	1146.67957	-1194.19312	530.64093	1044.80359	-1181.06665	593.1543	923.47906	-1185.13647	649.93323	845.89404	-1228.0022	628.14532	829.53699	-1181.27637	675.4472	774.24316	-1194.7439	497.0412	932.57672	-1544.09546	481.69116	932.9165	-1305.81885	331.34317	949.25677	-1504.81555	324.28253	963.98895	-1355.453	505.7868	633.74573	-1600.81543	577.97424	472.30753	-1557.97559	590.11365	281.89914	-1562.47559	651.55139	78.62309	-1534.17993	627.27087	33.61425	-1491.42102	805.30548	79.85114	-1521.17493	385.90765	643.48615	-1274.43933	363.47464	465.41867	-1312.85266	276.69141	292.42993	-1315.14417	201.80486	89.35627	-1368.73987	154.1971	65.08028	-1420.06299	337.32437	36.03865	-1380.97314	NaN	NaN	NaN	NaN	NaN	NaN	NaN	NaN	NaN	NaN	NaN	NaN	NaN	NaN	NaN	NaN	NaN	NaN
223	2.22	537.65906	1601.86646	-1508.38892	530.43268	1616.57495	-1376.13721	407.30777	1565.39661	-1507.14526	405.19199	1579.58545	-1376.87012	371.44656	1410.14832	-1436.35181	331.00342	1096.43823	-1434.87292	490.75314	1330.63306	-1434.6814	530.04297	1164.95508	-1436.20667	316.26468	1238.16516	-1332.56836	445.45319	1365.60522	-1592.06799	406.33157	1168.57166	-1660.00562	392.62204	1045.80444	-1671.23621	399.2771	915.65271	-1671.15503	400.3526	796.3576	-1640.7395	376.87421	804.65875	-1690.7063	379.616	720.43494	-1681.40271	450.81989	1359.26245	-1276.17993	494.30942	1145.82813	-1194.94275	541.12292	1044.06482	-1181.6969	604.5835	923.26776	-1186.17322	662.26678	846.63214	-1229.41833	640.55627	829.70831	-1182.87659	688.6239	775.13922	-1196.44788	507.92273	931.41388	-1544.62732	491.11237	931.85925	-1306.37915	341.55249	948.68591	-1506.6748	333.88507	963.09058	-1357.14709	514.65485	631.85156	-1601.4386	585.90265	470.21527	-1556.89636	602.96576	281.43561	-1562.6228	669.68976	79.3839	-1535.67322	646.72919	33.51498	-1493.27966	823.68542	84.43873	-1522.67126	393.41913	643.08752	-1274.36255	370.06812	465.01749	-1312.93237	280.80234	293.03949	-1315.078	202.8774	91.12442	-1368.54016	154.60495	67.70438	-1419.86597	337.54578	35.98531	-1380.85327	NaN	NaN	NaN	NaN	NaN	NaN	NaN	NaN	NaN	NaN	NaN	NaN	NaN	NaN	NaN	NaN	NaN	NaN
224	2.23	547.98889	1601.04333	-1509.09839	540.63617	1615.73193	-1376.87183	417.67856	1564.40906	-1507.94373	415.40869	1578.61255	-1377.72668	381.68542	1409.32483	-1437.55981	341.70706	1095.24854	-1435.97375	501.33475	1329.72607	-1435.43384	540.7016	1164.09119	-1436.78711	326.45776	1237.38342	-1333.58765	456.37997	1364.66602	-1592.9989	416.06656	1167.74438	-1660.71399	401.40417	1045.06812	-1671.87427	406.71381	914.79535	-1671.8822	406.76538	795.50079	-1641.61951	383.05142	804.06812	-1691.44128	384.88809	719.79492	-1682.21753	461.17804	1358.33801	-1277.05029	504.56885	1144.92529	-1195.7937	551.42847	1043.2688	-1182.43408	615.87537	922.99695	-1187.32397	674.29059	847.08972	-1230.87793	652.54584	829.74609	-1184.56958	701.51605	775.8631	-1198.31177	518.89081	930.23358	-1545.11768	500.68039	930.87567	-1306.89758	352.53625	947.63281	-1508.23132	343.68741	962.19623	-1358.92334	524.16071	630.11578	-1601.47339	594.29541	468.15775	-1555.8208	615.05817	281.0907	-1562.85181	685.33435	79.78912	-1536.77661	663.13672	33.30825	-1494.96484	839.39813	87.63071	-1523.95081	401.4693	642.7027	-1274.797	377.16284	464.61621	-1313.00562	285.31451	293.76663	-1314.99561	203.95291	93.22228	-1368.32922	155.37151	70.50798	-1419.61694	337.78888	35.94728	-1380.64734	NaN	NaN	NaN	NaN	NaN	NaN	NaN	NaN	NaN	NaN	NaN	NaN	NaN	NaN	NaN	NaN	NaN	NaN
225	2.24	558.36847	1600.28711	-1509.84229	550.88385	1614.97095	-1377.60266	428.05624	1563.52197	-1508.83508	425.6712	1577.7135	-1378.6095	392.43402	1408.43506	-1438.59998	352.32382	1094.41345	-1437.40625	512.03625	1328.88855	-1436.19495	551.34412	1163.12231	-1437.34058	336.84985	1236.54602	-1334.87622	467.42035	1363.75317	-1594.00098	426.09213	1166.8949	-1661.4021	410.61566	1044.297	-1672.54858	414.60629	913.9906	-1672.59534	413.44763	794.53009	-1642.25854	389.67523	803.49121	-1692.10706	390.6279	719.22491	-1683.00403	471.48981	1357.34827	-1277.95068	514.77649	1144.04993	-1196.70093	561.69177	1042.43665	-1183.38916	626.92072	922.65991	-1188.67981	685.89874	847.40326	-1232.40222	664.07507	829.54474	-1186.34509	713.27197	776.37579	-1200.23315	529.75238	929.18829	-1545.65894	510.38113	930.00867	-1307.45227	363.50302	946.8349	-1510.01196	353.58041	961.40875	-1360.81458	534.21344	628.58264	-1601.15918	603.87323	467.08441	-1555.64783	626.37811	280.5882	-1563.37793	698.47766	79.90995	-1537.74573	676.41913	32.5805	-1495.96179	852.27319	88.98481	-1524.69629	409.83118	642.46161	-1275.2594	384.62772	464.20874	-1313.01355	290.28052	294.60712	-1315.21997	205.34431	95.38609	-1368.06384	156.52258	73.46041	-1419.31299	338.09772	35.84422	-1380.43005	NaN	NaN	NaN	NaN	NaN	NaN	NaN	NaN	NaN	NaN	NaN	NaN	NaN	NaN	NaN	NaN	NaN	NaN
226	2.25	568.79596	1599.62915	-1510.59827	561.1098	1614.27954	-1378.32471	438.54141	1562.72034	-1509.76648	435.9866	1576.88623	-1379.45654	403.12619	1407.41077	-1439.62817	363.10284	1093.61572	-1438.92017	522.78217	1328.06177	-1437.00049	562.19873	1162.3938	-1438.03564	347.23572	1235.73096	-1336.14539	478.39822	1362.9303	-1595.0343	436.40756	1166.11926	-1662.18262	420.13153	1043.54126	-1673.16553	422.88376	913.16888	-1673.19592	420.49222	793.77875	-1643.11646	396.73611	802.93774	-1692.77429	396.83878	718.6817	-1683.68787	481.83044	1356.36902	-1278.85022	524.81403	1143.19873	-1197.77185	571.71509	1041.57043	-1184.46118	637.43237	922.10815	-1190.06433	697.19196	847.72009	-1234.00464	675.22168	829.29041	-1188.21802	724.79504	776.46509	-1202.1001	540.60815	928.18268	-1546.25574	520.27411	929.21185	-1307.94287	374.54114	946.16046	-1511.7832	363.79056	960.57526	-1362.62695	544.61853	627.43896	-1600.88782	614.13324	466.26385	-1555.60327	636.71625	279.7973	-1564.04395	708.2074	78.38216	-1537.65515	686.19299	31.38847	-1496.62085	862.13794	88.17012	-1524.7561	418.2959	642.01703	-1275.68372	392.55569	463.87521	-1313.05078	295.42383	295.49268	-1315.03845	206.81244	97.90791	-1367.77185	157.61089	76.82677	-1418.95203	338.38275	35.7784	-1380.22375	NaN	NaN	NaN	NaN	NaN	NaN	NaN	NaN	NaN	NaN	NaN	NaN	NaN	NaN	NaN	NaN	NaN	NaN
